<svg xmlns="http://www.w3.org/2000/svg" xmlns:xlink="http://www.w3.org/1999/xlink" width="500" zoomAndPan="magnify" viewBox="0 0 375 374.999991" height="500" preserveAspectRatio="xMidYMid meet" version="1.0"><defs><clipPath id="0896878688"><path d="M 1 54 L 227 54 L 227 368.144531 L 1 368.144531 Z M 1 54 " clip-rule="nonzero"/></clipPath><clipPath id="8b9749bac2"><path d="M 112 74 L 356 74 L 356 368.144531 L 112 368.144531 Z M 112 74 " clip-rule="nonzero"/></clipPath></defs><g clip-path="url(#0896878688)"><path fill="#5271ff" d="M 226.296875 110.414062 L 194.824219 164.886719 L 178.304688 136.191406 L 172.890625 145.589844 L 75.691406 313.78125 L 52.125 354.65625 C 49.703125 358.855469 46.214844 362.273438 42.15625 364.625 C 38.097656 366.972656 33.394531 368.253906 28.484375 368.253906 C 18.726562 368.253906 9.753906 363.058594 4.84375 354.582031 C 0 346.179688 0 335.785156 4.84375 327.3125 L 154.589844 68.046875 C 159.433594 59.570312 168.476562 54.375 178.230469 54.375 C 187.988281 54.375 196.960938 59.570312 201.800781 68.046875 L 221.382812 102.011719 Z M 226.296875 110.414062 " fill-opacity="1" fill-rule="nonzero"/></g><g clip-path="url(#8b9749bac2)"><path fill="#5271ff" d="M 351.621094 327.453125 L 280.414062 204.121094 L 248.941406 258.597656 L 280.769531 313.78125 L 194.46875 313.78125 L 237.617188 239.015625 L 269.09375 184.539062 L 308.96875 115.539062 C 313.953125 106.925781 313.808594 96.242188 308.683594 87.699219 C 297.859375 70.039062 272.082031 70.324219 261.757812 88.269531 L 237.617188 130.066406 L 206.144531 184.539062 L 131.449219 313.78125 L 114.785156 342.691406 C 112.933594 345.894531 112.292969 349.242188 112.507812 352.519531 C 112.507812 352.804688 112.578125 353.015625 112.578125 353.300781 C 112.578125 353.445312 112.578125 353.515625 112.578125 353.65625 C 112.578125 353.730469 112.578125 353.871094 112.648438 353.941406 C 112.722656 354.226562 112.792969 354.582031 112.863281 354.867188 C 112.933594 355.296875 113.078125 355.652344 113.148438 356.078125 C 113.789062 358.214844 114.855469 360.136719 116.140625 361.847656 C 116.496094 362.273438 116.851562 362.703125 117.207031 363.058594 C 120.269531 366.261719 124.542969 368.253906 129.453125 368.253906 L 191.976562 368.253906 C 191.976562 368.253906 192.046875 368.253906 192.046875 368.253906 L 327.839844 368.253906 C 337.59375 368.253906 346.566406 363.058594 351.40625 354.582031 C 356.464844 346.253906 356.464844 335.855469 351.621094 327.453125 Z M 351.621094 327.453125 " fill-opacity="1" fill-rule="nonzero"/></g><path fill="#5271ff" d="M 350.878906 33.332031 C 351.085938 34.203125 351.246094 35.082031 351.367188 35.972656 C 351.484375 36.859375 351.5625 37.75 351.59375 38.644531 C 351.625 39.539062 351.613281 40.433594 351.558594 41.328125 C 351.5 42.222656 351.402344 43.109375 351.257812 43.996094 C 351.113281 44.878906 350.929688 45.753906 350.699219 46.617188 C 350.46875 47.484375 350.199219 48.335938 349.886719 49.175781 C 349.570312 50.015625 349.21875 50.835938 348.824219 51.640625 C 348.429688 52.445312 348 53.226562 347.527344 53.988281 C 347.058594 54.753906 346.550781 55.488281 346.007812 56.199219 C 345.464844 56.914062 344.886719 57.597656 344.277344 58.253906 C 343.667969 58.90625 343.027344 59.53125 342.355469 60.125 C 341.683594 60.714844 340.984375 61.273438 340.257812 61.796875 C 339.53125 62.320312 338.78125 62.808594 338.003906 63.257812 C 337.230469 63.707031 336.4375 64.117188 335.621094 64.492188 C 334.808594 64.863281 333.976562 65.195312 333.128906 65.484375 C 332.28125 65.773438 331.421875 66.023438 330.550781 66.226562 C 329.679688 66.433594 328.800781 66.597656 327.914062 66.714844 C 327.023438 66.835938 326.132812 66.910156 325.238281 66.941406 C 324.34375 66.972656 323.449219 66.960938 322.554688 66.90625 C 321.660156 66.851562 320.773438 66.75 319.890625 66.605469 C 319.003906 66.464844 318.128906 66.277344 317.265625 66.046875 C 316.398438 65.820312 315.546875 65.546875 314.707031 65.234375 C 313.867188 64.921875 313.046875 64.566406 312.242188 64.175781 C 311.4375 63.78125 310.65625 63.347656 309.894531 62.878906 C 309.132812 62.40625 308.394531 61.898438 307.683594 61.355469 C 306.96875 60.8125 306.285156 60.234375 305.632812 59.625 C 304.976562 59.015625 304.351562 58.375 303.761719 57.703125 C 303.167969 57.03125 302.609375 56.332031 302.085938 55.605469 C 301.5625 54.878906 301.074219 54.128906 300.625 53.355469 C 300.175781 52.582031 299.765625 51.785156 299.394531 50.972656 C 299.019531 50.15625 298.691406 49.324219 298.398438 48.476562 C 298.109375 47.632812 297.863281 46.773438 297.65625 45.898438 C 297.449219 45.027344 297.289062 44.148438 297.167969 43.261719 C 297.046875 42.375 296.972656 41.484375 296.941406 40.585938 C 296.910156 39.691406 296.921875 38.796875 296.976562 37.90625 C 297.035156 37.011719 297.132812 36.121094 297.277344 35.238281 C 297.417969 34.355469 297.605469 33.480469 297.835938 32.613281 C 298.066406 31.746094 298.335938 30.894531 298.648438 30.054688 C 298.960938 29.21875 299.316406 28.394531 299.710938 27.589844 C 300.105469 26.789062 300.535156 26.003906 301.007812 25.242188 C 301.476562 24.480469 301.984375 23.742188 302.527344 23.03125 C 303.070312 22.320312 303.648438 21.636719 304.257812 20.980469 C 304.867188 20.324219 305.507812 19.703125 306.179688 19.109375 C 306.851562 18.515625 307.550781 17.957031 308.277344 17.433594 C 309.003906 16.910156 309.753906 16.425781 310.527344 15.972656 C 311.304688 15.523438 312.097656 15.113281 312.914062 14.742188 C 313.726562 14.371094 314.558594 14.039062 315.40625 13.75 C 316.253906 13.457031 317.113281 13.210938 317.984375 13.003906 C 318.855469 12.796875 319.734375 12.636719 320.621094 12.515625 C 321.507812 12.398438 322.402344 12.320312 323.296875 12.289062 C 324.191406 12.257812 325.085938 12.269531 325.980469 12.328125 C 326.871094 12.382812 327.761719 12.480469 328.644531 12.625 C 329.53125 12.769531 330.40625 12.957031 331.269531 13.183594 C 332.136719 13.414062 332.988281 13.683594 333.828125 14 C 334.667969 14.3125 335.488281 14.664062 336.292969 15.058594 C 337.097656 15.453125 337.878906 15.886719 338.640625 16.355469 C 339.402344 16.828125 340.140625 17.332031 340.851562 17.875 C 341.5625 18.417969 342.246094 18.996094 342.902344 19.605469 C 343.558594 20.21875 344.183594 20.859375 344.773438 21.53125 C 345.367188 22.203125 345.925781 22.898438 346.449219 23.625 C 346.972656 24.351562 347.460938 25.105469 347.910156 25.878906 C 348.359375 26.652344 348.769531 27.445312 349.140625 28.261719 C 349.515625 29.074219 349.84375 29.90625 350.136719 30.753906 C 350.425781 31.601562 350.671875 32.460938 350.878906 33.332031 Z M 350.878906 33.332031 " fill-opacity="1" fill-rule="nonzero"/></svg>