<svg xmlns="http://www.w3.org/2000/svg" xmlns:xlink="http://www.w3.org/1999/xlink" width="500" zoomAndPan="magnify" viewBox="0 0 375 374.999991" height="500" preserveAspectRatio="xMidYMid meet" version="1.0"><defs><clipPath id="9e436c713f"><path d="M 37.5 49 L 353.25 49 L 353.25 326 L 37.5 326 Z M 37.5 49 " clip-rule="nonzero"/></clipPath></defs><g clip-path="url(#9e436c713f)"><path fill="#ffffff" d="M 353.0625 228.519531 L 353.0625 281.453125 C 353.0625 282.898438 352.988281 284.335938 352.84375 285.773438 C 352.703125 287.210938 352.488281 288.636719 352.207031 290.050781 C 351.925781 291.46875 351.574219 292.867188 351.152344 294.246094 C 350.734375 295.628906 350.246094 296.984375 349.691406 298.320312 C 349.140625 299.652344 348.523438 300.953125 347.839844 302.226562 C 347.160156 303.5 346.417969 304.738281 345.617188 305.9375 C 344.8125 307.136719 343.953125 308.296875 343.039062 309.410156 C 342.121094 310.527344 341.15625 311.59375 340.132812 312.617188 C 339.113281 313.636719 338.042969 314.605469 336.929688 315.519531 C 335.8125 316.4375 334.65625 317.296875 333.453125 318.097656 C 332.253906 318.898438 331.019531 319.640625 329.746094 320.324219 C 328.472656 321.003906 327.167969 321.621094 325.835938 322.175781 C 324.503906 322.726562 323.144531 323.214844 321.765625 323.632812 C 320.382812 324.054688 318.984375 324.40625 317.570312 324.6875 C 316.152344 324.96875 314.726562 325.183594 313.289062 325.324219 C 311.855469 325.46875 310.414062 325.539062 308.972656 325.542969 L 81.589844 325.542969 C 80.148438 325.539062 78.707031 325.46875 77.269531 325.324219 C 75.835938 325.183594 74.410156 324.96875 72.992188 324.6875 C 71.578125 324.40625 70.179688 324.054688 68.796875 323.632812 C 67.417969 323.214844 66.058594 322.726562 64.726562 322.175781 C 63.394531 321.621094 62.089844 321.003906 60.816406 320.324219 C 59.542969 319.640625 58.308594 318.898438 57.105469 318.097656 C 55.90625 317.296875 54.75 316.4375 53.632812 315.519531 C 52.519531 314.605469 51.449219 313.636719 50.429688 312.617188 C 49.40625 311.59375 48.4375 310.527344 47.523438 309.410156 C 46.609375 308.296875 45.75 307.136719 44.945312 305.9375 C 44.144531 304.738281 43.402344 303.5 42.722656 302.226562 C 42.039062 300.953125 41.421875 299.652344 40.871094 298.320312 C 40.316406 296.984375 39.828125 295.628906 39.410156 294.246094 C 38.988281 292.867188 38.636719 291.46875 38.355469 290.050781 C 38.074219 288.636719 37.859375 287.210938 37.714844 285.773438 C 37.574219 284.335938 37.5 282.898438 37.5 281.453125 L 37.5 228.519531 C 37.5 227.625 37.585938 226.738281 37.761719 225.863281 C 37.933594 224.988281 38.191406 224.136719 38.535156 223.3125 C 38.875 222.484375 39.292969 221.703125 39.789062 220.960938 C 40.285156 220.214844 40.851562 219.527344 41.480469 218.898438 C 42.113281 218.265625 42.800781 217.703125 43.542969 217.203125 C 44.285156 216.707031 45.070312 216.289062 45.894531 215.949219 C 46.722656 215.605469 47.570312 215.347656 48.449219 215.171875 C 49.324219 215 50.207031 214.910156 51.101562 214.910156 C 51.996094 214.910156 52.878906 215 53.757812 215.171875 C 54.632812 215.347656 55.484375 215.605469 56.308594 215.949219 C 57.132812 216.289062 57.917969 216.707031 58.660156 217.203125 C 59.402344 217.703125 60.089844 218.265625 60.722656 218.898438 C 61.351562 219.527344 61.917969 220.214844 62.414062 220.960938 C 62.910156 221.703125 63.328125 222.484375 63.667969 223.3125 C 64.011719 224.136719 64.269531 224.988281 64.441406 225.863281 C 64.617188 226.738281 64.703125 227.625 64.703125 228.519531 L 64.703125 279.074219 C 64.703125 279.703125 64.734375 280.332031 64.796875 280.960938 C 64.859375 281.589844 64.953125 282.210938 65.078125 282.832031 C 65.203125 283.449219 65.355469 284.058594 65.539062 284.664062 C 65.722656 285.265625 65.933594 285.859375 66.175781 286.441406 C 66.417969 287.023438 66.6875 287.59375 66.984375 288.152344 C 67.285156 288.707031 67.609375 289.246094 67.957031 289.773438 C 68.308594 290.296875 68.683594 290.800781 69.085938 291.289062 C 69.484375 291.777344 69.910156 292.242188 70.355469 292.691406 C 70.800781 293.136719 71.269531 293.558594 71.753906 293.960938 C 72.242188 294.359375 72.75 294.734375 73.273438 295.085938 C 73.796875 295.4375 74.339844 295.761719 74.894531 296.058594 C 75.449219 296.355469 76.019531 296.625 76.601562 296.867188 C 77.183594 297.109375 77.777344 297.320312 78.382812 297.503906 C 78.984375 297.6875 79.597656 297.839844 80.214844 297.964844 C 80.832031 298.089844 81.457031 298.179688 82.085938 298.242188 C 82.710938 298.304688 83.339844 298.339844 83.972656 298.339844 L 306.589844 298.339844 C 307.222656 298.339844 307.851562 298.304688 308.476562 298.242188 C 309.105469 298.179688 309.730469 298.089844 310.347656 297.964844 C 310.964844 297.839844 311.578125 297.6875 312.179688 297.503906 C 312.785156 297.320312 313.378906 297.109375 313.960938 296.867188 C 314.542969 296.625 315.113281 296.355469 315.667969 296.058594 C 316.222656 295.761719 316.765625 295.4375 317.289062 295.085938 C 317.8125 294.734375 318.320312 294.359375 318.808594 293.960938 C 319.292969 293.558594 319.761719 293.136719 320.207031 292.691406 C 320.652344 292.242188 321.078125 291.777344 321.476562 291.289062 C 321.878906 290.800781 322.253906 290.296875 322.605469 289.773438 C 322.953125 289.246094 323.277344 288.707031 323.574219 288.152344 C 323.875 287.59375 324.144531 287.023438 324.386719 286.441406 C 324.628906 285.859375 324.839844 285.265625 325.023438 284.664062 C 325.207031 284.058594 325.359375 283.449219 325.484375 282.832031 C 325.609375 282.210938 325.703125 281.589844 325.765625 280.960938 C 325.828125 280.332031 325.859375 279.703125 325.859375 279.074219 L 325.859375 228.519531 C 325.859375 227.625 325.945312 226.742188 326.121094 225.863281 C 326.292969 224.988281 326.550781 224.136719 326.894531 223.3125 C 327.234375 222.488281 327.65625 221.703125 328.152344 220.960938 C 328.648438 220.21875 329.210938 219.53125 329.84375 218.898438 C 330.472656 218.269531 331.160156 217.703125 331.902344 217.207031 C 332.648438 216.710938 333.429688 216.292969 334.253906 215.953125 C 335.082031 215.609375 335.929688 215.351562 336.808594 215.175781 C 337.683594 215.003906 338.566406 214.917969 339.460938 214.917969 C 340.355469 214.917969 341.238281 215.003906 342.113281 215.175781 C 342.988281 215.351562 343.839844 215.609375 344.664062 215.953125 C 345.492188 216.292969 346.273438 216.710938 347.015625 217.207031 C 347.761719 217.703125 348.445312 218.269531 349.078125 218.898438 C 349.710938 219.53125 350.273438 220.21875 350.769531 220.960938 C 351.265625 221.703125 351.683594 222.488281 352.027344 223.3125 C 352.367188 224.136719 352.625 224.988281 352.800781 225.863281 C 352.976562 226.742188 353.0625 227.625 353.0625 228.519531 Z M 151.488281 131.707031 L 177.375 105.820312 C 177.765625 105.429688 178.230469 105.183594 178.769531 105.074219 C 179.308594 104.96875 179.832031 105.019531 180.339844 105.230469 C 180.847656 105.441406 181.253906 105.773438 181.5625 106.230469 C 181.867188 106.6875 182.019531 107.191406 182.019531 107.742188 L 182.019531 235.8125 C 182.019531 236.707031 182.105469 237.589844 182.28125 238.464844 C 182.453125 239.34375 182.714844 240.191406 183.054688 241.019531 C 183.394531 241.84375 183.816406 242.628906 184.3125 243.371094 C 184.808594 244.113281 185.371094 244.800781 186.003906 245.429688 C 186.632812 246.0625 187.320312 246.625 188.0625 247.121094 C 188.808594 247.617188 189.589844 248.039062 190.414062 248.378906 C 191.242188 248.722656 192.089844 248.980469 192.96875 249.152344 C 193.84375 249.328125 194.726562 249.414062 195.621094 249.414062 C 196.515625 249.414062 197.398438 249.328125 198.273438 249.152344 C 199.152344 248.980469 200 248.722656 200.828125 248.378906 C 201.652344 248.039062 202.433594 247.617188 203.179688 247.121094 C 203.921875 246.625 204.609375 246.0625 205.238281 245.429688 C 205.871094 244.800781 206.433594 244.113281 206.929688 243.371094 C 207.425781 242.628906 207.847656 241.84375 208.1875 241.019531 C 208.53125 240.191406 208.789062 239.34375 208.960938 238.464844 C 209.136719 237.589844 209.222656 236.707031 209.222656 235.8125 L 209.222656 108.421875 C 209.222656 107.875 209.375 107.371094 209.679688 106.910156 C 209.988281 106.453125 210.394531 106.121094 210.902344 105.910156 C 211.410156 105.703125 211.933594 105.652344 212.472656 105.761719 C 213.011719 105.867188 213.476562 106.113281 213.867188 106.5 L 239.074219 131.707031 C 239.714844 132.320312 240.40625 132.867188 241.152344 133.347656 C 241.898438 133.828125 242.683594 134.234375 243.507812 134.5625 C 244.332031 134.894531 245.179688 135.140625 246.050781 135.3125 C 246.921875 135.480469 247.800781 135.5625 248.691406 135.5625 C 249.578125 135.5625 250.457031 135.480469 251.328125 135.3125 C 252.199219 135.140625 253.046875 134.894531 253.871094 134.5625 C 254.695312 134.234375 255.480469 133.828125 256.226562 133.347656 C 256.972656 132.867188 257.664062 132.320312 258.304688 131.707031 C 258.9375 131.074219 259.5 130.386719 259.996094 129.644531 C 260.488281 128.902344 260.90625 128.117188 261.25 127.292969 C 261.589844 126.46875 261.847656 125.617188 262.019531 124.742188 C 262.195312 123.867188 262.28125 122.980469 262.28125 122.089844 C 262.28125 121.195312 262.195312 120.3125 262.019531 119.4375 C 261.847656 118.5625 261.589844 117.710938 261.25 116.886719 C 260.90625 116.0625 260.488281 115.277344 259.996094 114.535156 C 259.5 113.792969 258.9375 113.105469 258.304688 112.472656 L 195.28125 49.445312 L 132.257812 112.472656 C 131.625 113.105469 131.0625 113.792969 130.566406 114.535156 C 130.074219 115.277344 129.65625 116.0625 129.3125 116.886719 C 128.972656 117.710938 128.714844 118.5625 128.542969 119.4375 C 128.367188 120.3125 128.28125 121.195312 128.28125 122.089844 C 128.28125 122.980469 128.367188 123.867188 128.542969 124.742188 C 128.714844 125.617188 128.972656 126.46875 129.3125 127.292969 C 129.65625 128.117188 130.074219 128.902344 130.566406 129.644531 C 131.0625 130.386719 131.625 131.074219 132.257812 131.707031 C 132.898438 132.320312 133.589844 132.867188 134.335938 133.347656 C 135.082031 133.828125 135.867188 134.234375 136.691406 134.5625 C 137.515625 134.894531 138.363281 135.140625 139.234375 135.3125 C 140.105469 135.480469 140.984375 135.5625 141.871094 135.5625 C 142.761719 135.5625 143.640625 135.480469 144.511719 135.3125 C 145.382812 135.140625 146.230469 134.894531 147.054688 134.5625 C 147.878906 134.234375 148.664062 133.828125 149.410156 133.347656 C 150.15625 132.867188 150.847656 132.320312 151.488281 131.707031 Z M 151.488281 131.707031 " fill-opacity="1" fill-rule="nonzero"/></g></svg>