<svg xmlns="http://www.w3.org/2000/svg" xmlns:xlink="http://www.w3.org/1999/xlink" width="500" zoomAndPan="magnify" viewBox="0 0 375 374.999991" height="500" preserveAspectRatio="xMidYMid meet" version="1.0"><defs><clipPath id="62097fb717"><path d="M 21.234375 37.5 L 353.519531 37.5 L 353.519531 340.5 L 21.234375 340.5 Z M 21.234375 37.5 " clip-rule="nonzero"/></clipPath></defs><g clip-path="url(#62097fb717)"><path fill="#ffffff" d="M 149.058594 305.28125 L 324.351562 129.988281 C 341.769531 112.421875 341.679688 84.082031 324.117188 66.636719 C 306.640625 49.308594 278.476562 49.308594 261 66.636719 L 111.359375 216.304688 C 103.183594 224.484375 103.183594 237.769531 111.359375 245.945312 C 119.539062 254.121094 132.820312 254.121094 141 245.945312 L 255.183594 131.757812 L 266.492188 143.066406 L 151.832031 257.722656 C 137.308594 272.070312 113.898438 271.921875 99.550781 257.371094 C 85.382812 242.992188 85.382812 219.847656 99.582031 205.472656 L 249.753906 55.300781 C 273.488281 31.566406 311.984375 31.566406 335.71875 55.300781 C 359.453125 79.035156 359.453125 117.5 335.71875 141.265625 L 159.746094 317.207031 C 127.863281 348.824219 76.40625 348.589844 44.792969 316.734375 C 13.382812 285.03125 13.382812 233.929688 44.792969 202.253906 L 185.25 61.796875 L 196.558594 73.101562 L 56.71875 212.941406 C 31.359375 238.59375 31.566406 279.921875 57.191406 305.28125 C 82.636719 330.460938 123.613281 330.460938 149.058594 305.28125 " fill-opacity="1" fill-rule="nonzero"/></g></svg>