<svg xmlns="http://www.w3.org/2000/svg" xmlns:xlink="http://www.w3.org/1999/xlink" width="500" zoomAndPan="magnify" viewBox="0 0 375 374.999991" height="500" preserveAspectRatio="xMidYMid meet" version="1.0"><defs><clipPath id="ff655cbb44"><path d="M 65.160156 39 L 323.910156 39 L 323.910156 355.5 L 65.160156 355.5 Z M 65.160156 39 " clip-rule="nonzero"/></clipPath></defs><g clip-path="url(#ff655cbb44)"><path fill="#5271ff" d="M 222.589844 335.308594 L 220.425781 344.078125 C 218.917969 350.171875 215.289062 355.503906 209.003906 355.503906 L 179.707031 355.503906 C 173.417969 355.503906 169.785156 350.171875 168.28125 344.078125 L 166.117188 335.308594 C 165.976562 334.738281 165.898438 334.160156 165.890625 333.570312 C 165.878906 332.984375 165.9375 332.402344 166.058594 331.828125 C 166.179688 331.253906 166.367188 330.699219 166.617188 330.167969 C 166.863281 329.636719 167.171875 329.140625 167.535156 328.675781 C 167.894531 328.214844 168.304688 327.800781 168.765625 327.433594 C 169.222656 327.0625 169.714844 326.75 170.242188 326.496094 C 170.773438 326.238281 171.324219 326.046875 171.894531 325.917969 C 172.46875 325.789062 173.050781 325.722656 173.636719 325.726562 L 215.074219 325.726562 C 215.660156 325.722656 216.238281 325.789062 216.8125 325.917969 C 217.386719 326.050781 217.933594 326.242188 218.464844 326.5 C 218.992188 326.753906 219.484375 327.066406 219.941406 327.433594 C 220.398438 327.804688 220.808594 328.21875 221.171875 328.679688 C 221.535156 329.140625 221.839844 329.640625 222.089844 330.171875 C 222.339844 330.703125 222.523438 331.253906 222.648438 331.828125 C 222.769531 332.402344 222.828125 332.984375 222.816406 333.570312 C 222.808594 334.160156 222.734375 334.738281 222.589844 335.308594 M 269.972656 240.589844 C 270.480469 240.585938 270.984375 240.535156 271.480469 240.433594 C 271.976562 240.332031 272.460938 240.183594 272.925781 239.988281 C 273.394531 239.792969 273.839844 239.554688 274.261719 239.269531 C 274.683594 238.988281 275.070312 238.667969 275.429688 238.308594 C 275.789062 237.949219 276.109375 237.5625 276.390625 237.140625 C 276.675781 236.71875 276.914062 236.273438 277.109375 235.804688 C 277.304688 235.335938 277.453125 234.855469 277.554688 234.359375 C 277.65625 233.863281 277.707031 233.359375 277.710938 232.851562 L 277.710938 170.230469 C 277.703125 169.726562 277.648438 169.226562 277.546875 168.730469 C 277.441406 168.238281 277.292969 167.757812 277.09375 167.292969 C 276.898438 166.828125 276.660156 166.382812 276.375 165.964844 C 276.09375 165.546875 275.773438 165.160156 275.414062 164.804688 C 275.054688 164.449219 274.667969 164.128906 274.246094 163.847656 C 273.828125 163.570312 273.382812 163.332031 272.917969 163.136719 C 272.449219 162.945312 271.96875 162.796875 271.472656 162.695312 C 270.980469 162.597656 270.480469 162.542969 269.972656 162.539062 C 219.554688 162.539062 169.140625 162.539062 118.726562 162.539062 C 118.21875 162.542969 117.71875 162.597656 117.222656 162.699219 C 116.722656 162.796875 116.242188 162.945312 115.773438 163.140625 C 115.304688 163.335938 114.863281 163.578125 114.441406 163.859375 C 114.019531 164.140625 113.628906 164.460938 113.269531 164.820312 C 112.914062 165.179688 112.589844 165.570312 112.308594 165.988281 C 112.027344 166.410156 111.789062 166.855469 111.59375 167.324219 C 111.398438 167.792969 111.25 168.273438 111.148438 168.769531 C 111.046875 169.269531 110.996094 169.769531 110.992188 170.277344 L 110.992188 232.851562 C 110.996094 233.359375 111.046875 233.867188 111.148438 234.363281 C 111.25 234.863281 111.398438 235.347656 111.597656 235.816406 C 111.792969 236.285156 112.035156 236.730469 112.320312 237.152344 C 112.601562 237.574219 112.925781 237.964844 113.289062 238.324219 C 113.648438 238.683594 114.039062 239.003906 114.464844 239.285156 C 114.890625 239.570312 115.335938 239.804688 115.804688 240 C 116.277344 240.195312 116.761719 240.339844 117.261719 240.441406 C 117.761719 240.539062 118.265625 240.589844 118.773438 240.589844 Z M 233.859375 184.496094 C 235.75 184.492188 237.566406 184.855469 239.308594 185.578125 C 238.988281 185.816406 238.695312 186.085938 238.429688 186.386719 C 238.167969 186.6875 237.9375 187.015625 237.746094 187.363281 C 237.550781 187.714844 237.398438 188.082031 237.285156 188.464844 C 237.167969 188.847656 237.097656 189.242188 237.066406 189.640625 C 237.039062 190.039062 237.050781 190.4375 237.105469 190.832031 C 237.164062 191.230469 237.261719 191.613281 237.402344 191.988281 C 237.539062 192.367188 237.71875 192.722656 237.933594 193.058594 C 238.148438 193.394531 238.398438 193.703125 238.683594 193.988281 C 238.964844 194.269531 239.273438 194.519531 239.613281 194.738281 C 239.949219 194.953125 240.304688 195.128906 240.679688 195.269531 C 241.054688 195.410156 241.441406 195.507812 241.835938 195.5625 C 242.234375 195.617188 242.632812 195.632812 243.03125 195.601562 C 243.429688 195.574219 243.820312 195.5 244.203125 195.386719 C 244.589844 195.273438 244.957031 195.117188 245.304688 194.925781 C 245.65625 194.730469 245.980469 194.503906 246.285156 194.238281 C 246.585938 193.976562 246.855469 193.683594 247.09375 193.363281 C 247.285156 193.832031 247.453125 194.308594 247.597656 194.796875 C 247.738281 195.285156 247.855469 195.777344 247.945312 196.277344 C 248.035156 196.777344 248.097656 197.28125 248.136719 197.789062 C 248.171875 198.296875 248.179688 198.804688 248.164062 199.3125 C 248.144531 199.820312 248.101562 200.324219 248.03125 200.828125 C 247.957031 201.332031 247.859375 201.828125 247.738281 202.320312 C 247.613281 202.8125 247.460938 203.296875 247.285156 203.773438 C 247.109375 204.25 246.910156 204.71875 246.683594 205.171875 C 246.460938 205.628906 246.210938 206.070312 245.9375 206.5 C 245.664062 206.925781 245.371094 207.339844 245.054688 207.738281 C 244.738281 208.136719 244.402344 208.515625 244.042969 208.875 C 243.6875 209.238281 243.3125 209.578125 242.917969 209.902344 C 242.527344 210.222656 242.117188 210.523438 241.691406 210.800781 C 241.265625 211.078125 240.828125 211.335938 240.375 211.566406 C 239.921875 211.796875 239.460938 212.003906 238.984375 212.1875 C 238.511719 212.367188 238.027344 212.523438 237.539062 212.65625 C 237.046875 212.785156 236.550781 212.890625 236.046875 212.96875 C 235.546875 213.046875 235.042969 213.097656 234.535156 213.121094 C 234.027344 213.144531 233.519531 213.144531 233.011719 213.113281 C 232.503906 213.082031 232 213.027344 231.5 212.945312 C 231 212.859375 230.503906 212.75 230.011719 212.613281 C 229.523438 212.476562 229.042969 212.316406 228.570312 212.128906 C 228.097656 211.941406 227.636719 211.730469 227.1875 211.492188 C 226.738281 211.257812 226.300781 210.996094 225.878906 210.714844 C 225.457031 210.433594 225.050781 210.128906 224.664062 209.800781 C 224.273438 209.476562 223.902344 209.128906 223.546875 208.765625 C 223.195312 208.398438 222.863281 208.015625 222.550781 207.613281 C 222.238281 207.214844 221.949219 206.796875 221.679688 206.367188 C 221.414062 205.933594 221.167969 205.488281 220.949219 205.03125 C 220.730469 204.574219 220.53125 204.105469 220.363281 203.625 C 220.191406 203.148438 220.046875 202.660156 219.929688 202.167969 C 219.808594 201.675781 219.71875 201.175781 219.652344 200.671875 C 219.585938 200.167969 219.546875 199.660156 219.535156 199.152344 C 219.523438 198.644531 219.539062 198.140625 219.578125 197.632812 C 219.621094 197.125 219.691406 196.625 219.785156 196.125 C 219.882812 195.625 220.003906 195.132812 220.152344 194.648438 C 220.300781 194.160156 220.472656 193.683594 220.671875 193.214844 C 220.871094 192.75 221.09375 192.292969 221.339844 191.847656 C 221.585938 191.40625 221.855469 190.976562 222.148438 190.5625 C 222.441406 190.144531 222.757812 189.746094 223.09375 189.367188 C 223.429688 188.984375 223.78125 188.621094 224.15625 188.277344 C 224.53125 187.933594 224.921875 187.609375 225.328125 187.308594 C 225.738281 187.003906 226.160156 186.726562 226.597656 186.46875 C 227.039062 186.210938 227.488281 185.976562 227.949219 185.769531 C 228.414062 185.558594 228.886719 185.375 229.371094 185.214844 C 229.851562 185.058594 230.339844 184.925781 230.839844 184.816406 C 231.335938 184.710938 231.835938 184.628906 232.339844 184.578125 C 232.847656 184.523438 233.351562 184.496094 233.859375 184.496094 Z M 154.847656 184.496094 C 156.738281 184.492188 158.550781 184.855469 160.296875 185.578125 C 159.972656 185.816406 159.683594 186.085938 159.417969 186.386719 C 159.15625 186.6875 158.925781 187.015625 158.734375 187.363281 C 158.539062 187.714844 158.386719 188.082031 158.269531 188.464844 C 158.15625 188.847656 158.085938 189.242188 158.054688 189.640625 C 158.027344 190.039062 158.039062 190.4375 158.09375 190.832031 C 158.152344 191.230469 158.25 191.613281 158.386719 191.988281 C 158.527344 192.367188 158.703125 192.722656 158.921875 193.058594 C 159.136719 193.394531 159.386719 193.703125 159.667969 193.988281 C 159.953125 194.269531 160.261719 194.519531 160.601562 194.738281 C 160.9375 194.953125 161.292969 195.128906 161.667969 195.269531 C 162.042969 195.410156 162.429688 195.507812 162.824219 195.5625 C 163.222656 195.617188 163.617188 195.632812 164.019531 195.601562 C 164.417969 195.574219 164.808594 195.5 165.191406 195.386719 C 165.574219 195.273438 165.941406 195.117188 166.292969 194.925781 C 166.644531 194.730469 166.96875 194.503906 167.269531 194.238281 C 167.570312 193.976562 167.839844 193.683594 168.078125 193.363281 C 168.273438 193.832031 168.441406 194.308594 168.582031 194.796875 C 168.726562 195.285156 168.839844 195.777344 168.929688 196.277344 C 169.019531 196.777344 169.082031 197.28125 169.121094 197.785156 C 169.15625 198.292969 169.164062 198.800781 169.148438 199.308594 C 169.128906 199.816406 169.085938 200.320312 169.015625 200.824219 C 168.941406 201.324219 168.84375 201.824219 168.722656 202.316406 C 168.597656 202.808594 168.445312 203.292969 168.269531 203.765625 C 168.09375 204.242188 167.894531 204.710938 167.667969 205.164062 C 167.441406 205.621094 167.195312 206.0625 166.921875 206.488281 C 166.648438 206.917969 166.355469 207.332031 166.039062 207.726562 C 165.722656 208.125 165.386719 208.503906 165.027344 208.867188 C 164.671875 209.226562 164.296875 209.566406 163.90625 209.890625 C 163.511719 210.210938 163.101562 210.511719 162.679688 210.789062 C 162.253906 211.066406 161.8125 211.320312 161.363281 211.550781 C 160.910156 211.78125 160.449219 211.988281 159.972656 212.171875 C 159.5 212.355469 159.015625 212.511719 158.527344 212.640625 C 158.035156 212.769531 157.539062 212.875 157.039062 212.953125 C 156.535156 213.03125 156.03125 213.082031 155.523438 213.105469 C 155.019531 213.128906 154.511719 213.128906 154.003906 213.097656 C 153.496094 213.066406 152.992188 213.011719 152.492188 212.929688 C 151.992188 212.84375 151.496094 212.734375 151.007812 212.597656 C 150.519531 212.460938 150.039062 212.300781 149.566406 212.113281 C 149.09375 211.925781 148.632812 211.714844 148.183594 211.480469 C 147.734375 211.242188 147.300781 210.984375 146.878906 210.699219 C 146.457031 210.417969 146.050781 210.113281 145.660156 209.789062 C 145.269531 209.460938 144.898438 209.117188 144.546875 208.75 C 144.195312 208.386719 143.863281 208.003906 143.550781 207.601562 C 143.238281 207.203125 142.949219 206.785156 142.679688 206.355469 C 142.414062 205.921875 142.167969 205.476562 141.949219 205.019531 C 141.730469 204.5625 141.535156 204.097656 141.363281 203.617188 C 141.191406 203.140625 141.046875 202.652344 140.929688 202.160156 C 140.808594 201.667969 140.71875 201.167969 140.652344 200.664062 C 140.585938 200.160156 140.546875 199.65625 140.535156 199.148438 C 140.523438 198.640625 140.539062 198.132812 140.578125 197.628906 C 140.621094 197.121094 140.691406 196.621094 140.785156 196.121094 C 140.882812 195.621094 141.003906 195.128906 141.152344 194.644531 C 141.296875 194.160156 141.472656 193.683594 141.667969 193.214844 C 141.867188 192.746094 142.089844 192.292969 142.339844 191.847656 C 142.585938 191.40625 142.855469 190.976562 143.148438 190.558594 C 143.441406 190.144531 143.753906 189.746094 144.089844 189.367188 C 144.421875 188.984375 144.777344 188.621094 145.152344 188.277344 C 145.523438 187.933594 145.914062 187.609375 146.324219 187.308594 C 146.730469 187.007812 147.15625 186.726562 147.59375 186.46875 C 148.03125 186.210938 148.480469 185.980469 148.941406 185.769531 C 149.40625 185.558594 149.878906 185.375 150.359375 185.21875 C 150.84375 185.058594 151.332031 184.925781 151.828125 184.816406 C 152.324219 184.710938 152.824219 184.628906 153.328125 184.578125 C 153.835938 184.523438 154.339844 184.496094 154.847656 184.496094 Z M 323.511719 161.148438 L 323.511719 241.957031 C 323.507812 243.414062 323.433594 244.863281 323.285156 246.308594 C 323.140625 247.757812 322.925781 249.191406 322.636719 250.617188 C 322.351562 252.042969 321.996094 253.449219 321.570312 254.84375 C 321.144531 256.234375 320.652344 257.597656 320.09375 258.941406 C 319.535156 260.285156 318.914062 261.597656 318.226562 262.878906 C 317.539062 264.160156 316.792969 265.40625 315.984375 266.613281 C 315.175781 267.820312 314.308594 268.988281 313.386719 270.109375 C 312.464844 271.234375 311.488281 272.308594 310.460938 273.339844 C 309.433594 274.367188 308.355469 275.34375 307.230469 276.265625 C 306.109375 277.1875 304.941406 278.054688 303.734375 278.863281 C 302.527344 279.671875 301.28125 280.417969 300 281.105469 C 298.71875 281.792969 297.40625 282.414062 296.0625 282.972656 C 294.71875 283.53125 293.355469 284.023438 291.964844 284.449219 C 290.574219 284.875 289.164062 285.230469 287.738281 285.515625 C 286.3125 285.800781 284.878906 286.019531 283.429688 286.164062 C 281.984375 286.3125 280.535156 286.386719 279.078125 286.390625 L 234.601562 286.390625 L 230.257812 304.113281 C 230.058594 304.957031 229.722656 305.746094 229.257812 306.476562 C 228.789062 307.210938 228.214844 307.84375 227.53125 308.378906 C 226.847656 308.914062 226.097656 309.324219 225.273438 309.601562 C 224.453125 309.882812 223.605469 310.019531 222.738281 310.011719 L 165.960938 310.011719 C 165.09375 310.019531 164.25 309.882812 163.429688 309.601562 C 162.605469 309.320312 161.855469 308.914062 161.171875 308.378906 C 160.488281 307.839844 159.914062 307.207031 159.445312 306.476562 C 158.976562 305.746094 158.644531 304.957031 158.445312 304.113281 L 154.109375 286.390625 L 109.628906 286.390625 C 108.175781 286.386719 106.726562 286.3125 105.277344 286.164062 C 103.832031 286.019531 102.394531 285.800781 100.96875 285.515625 C 99.542969 285.230469 98.136719 284.875 96.746094 284.449219 C 95.355469 284.023438 93.988281 283.53125 92.644531 282.972656 C 91.304688 282.414062 89.992188 281.792969 88.710938 281.105469 C 87.429688 280.417969 86.183594 279.671875 84.976562 278.863281 C 83.765625 278.054688 82.601562 277.1875 81.476562 276.265625 C 80.351562 275.34375 79.277344 274.367188 78.25 273.339844 C 77.222656 272.308594 76.246094 271.234375 75.324219 270.109375 C 74.398438 268.988281 73.535156 267.820312 72.726562 266.613281 C 71.917969 265.40625 71.167969 264.160156 70.480469 262.878906 C 69.792969 261.597656 69.171875 260.285156 68.613281 258.941406 C 68.054688 257.597656 67.5625 256.234375 67.140625 254.84375 C 66.714844 253.449219 66.359375 252.042969 66.070312 250.617188 C 65.785156 249.191406 65.570312 247.757812 65.421875 246.308594 C 65.277344 244.863281 65.199219 243.414062 65.195312 241.957031 L 65.195312 161.070312 C 65.199219 159.617188 65.277344 158.164062 65.421875 156.71875 C 65.570312 155.273438 65.785156 153.835938 66.070312 152.410156 C 66.359375 150.984375 66.714844 149.578125 67.140625 148.1875 C 67.5625 146.796875 68.054688 145.429688 68.613281 144.085938 C 69.171875 142.746094 69.792969 141.433594 70.480469 140.152344 C 71.167969 138.867188 71.917969 137.625 72.726562 136.414062 C 73.535156 135.207031 74.398438 134.042969 75.324219 132.917969 C 76.246094 131.792969 77.222656 130.71875 78.25 129.691406 C 79.277344 128.660156 80.351562 127.6875 81.476562 126.761719 C 82.601562 125.839844 83.765625 124.972656 84.976562 124.164062 C 86.183594 123.355469 87.429688 122.609375 88.710938 121.921875 C 89.992188 121.234375 91.304688 120.613281 92.644531 120.054688 C 93.988281 119.496094 95.355469 119.003906 96.746094 118.578125 C 98.136719 118.15625 99.542969 117.800781 100.96875 117.511719 C 102.394531 117.226562 103.832031 117.007812 105.277344 116.863281 C 106.726562 116.714844 108.175781 116.640625 109.628906 116.636719 L 143.625 116.636719 L 134.058594 76.835938 C 133.320312 76.796875 132.585938 76.710938 131.855469 76.585938 C 131.128906 76.460938 130.40625 76.289062 129.699219 76.078125 C 128.988281 75.867188 128.292969 75.617188 127.613281 75.324219 C 126.933594 75.03125 126.273438 74.695312 125.632812 74.324219 C 124.992188 73.953125 124.378906 73.546875 123.785156 73.105469 C 123.191406 72.660156 122.628906 72.183594 122.09375 71.671875 C 121.554688 71.160156 121.050781 70.621094 120.578125 70.050781 C 120.105469 69.480469 119.671875 68.886719 119.269531 68.265625 C 118.867188 67.640625 118.5 67 118.175781 66.335938 C 117.847656 65.671875 117.5625 64.988281 117.316406 64.289062 C 117.070312 63.59375 116.867188 62.882812 116.707031 62.160156 C 116.542969 61.4375 116.425781 60.707031 116.351562 59.972656 C 116.273438 59.234375 116.242188 58.496094 116.253906 57.757812 C 116.265625 57.015625 116.320312 56.28125 116.417969 55.546875 C 116.515625 54.8125 116.65625 54.085938 116.839844 53.371094 C 117.023438 52.652344 117.25 51.949219 117.515625 51.257812 C 117.78125 50.566406 118.089844 49.894531 118.4375 49.242188 C 118.78125 48.585938 119.164062 47.953125 119.585938 47.347656 C 120.007812 46.738281 120.460938 46.15625 120.953125 45.597656 C 121.441406 45.042969 121.960938 44.519531 122.511719 44.027344 C 123.0625 43.53125 123.644531 43.070312 124.25 42.644531 C 124.855469 42.21875 125.484375 41.832031 126.132812 41.480469 C 126.785156 41.128906 127.457031 40.816406 128.144531 40.542969 C 128.832031 40.273438 129.535156 40.042969 130.25 39.851562 C 130.964844 39.660156 131.691406 39.515625 132.421875 39.410156 C 133.15625 39.308594 133.890625 39.246094 134.632812 39.230469 C 135.371094 39.210938 136.109375 39.238281 136.847656 39.308594 C 137.585938 39.378906 138.316406 39.492188 139.039062 39.648438 C 139.761719 39.804688 140.472656 40 141.175781 40.242188 C 141.875 40.480469 142.558594 40.761719 143.226562 41.082031 C 143.890625 41.402344 144.539062 41.761719 145.164062 42.160156 C 145.789062 42.554688 146.386719 42.988281 146.960938 43.457031 C 147.535156 43.925781 148.078125 44.425781 148.59375 44.957031 C 149.109375 45.488281 149.589844 46.046875 150.039062 46.636719 C 150.488281 47.226562 150.898438 47.839844 151.277344 48.476562 C 151.652344 49.113281 151.988281 49.773438 152.289062 50.449219 C 152.585938 51.125 152.84375 51.820312 153.0625 52.527344 C 153.28125 53.234375 153.453125 53.953125 153.585938 54.679688 C 153.71875 55.410156 153.808594 56.144531 153.851562 56.882812 C 153.898438 57.621094 153.902344 58.359375 153.859375 59.097656 C 153.816406 59.839844 153.734375 60.570312 153.605469 61.300781 C 153.476562 62.03125 153.304688 62.75 153.09375 63.457031 C 152.878906 64.167969 152.625 64.859375 152.332031 65.539062 C 152.035156 66.21875 151.703125 66.878906 151.328125 67.519531 C 150.957031 68.15625 150.546875 68.773438 150.101562 69.363281 C 149.65625 69.957031 149.179688 70.519531 148.667969 71.054688 C 148.15625 71.589844 147.613281 72.089844 147.042969 72.5625 C 146.472656 73.035156 145.875 73.46875 145.25 73.871094 L 159.378906 116.675781 L 229.332031 116.675781 L 243.425781 73.871094 C 242.804688 73.46875 242.207031 73.035156 241.632812 72.5625 C 241.0625 72.089844 240.519531 71.589844 240.007812 71.054688 C 239.496094 70.519531 239.019531 69.953125 238.570312 69.363281 C 238.125 68.769531 237.71875 68.15625 237.34375 67.515625 C 236.972656 66.875 236.636719 66.214844 236.34375 65.535156 C 236.046875 64.859375 235.792969 64.164062 235.578125 63.453125 C 235.367188 62.746094 235.195312 62.023438 235.066406 61.296875 C 234.9375 60.566406 234.855469 59.832031 234.8125 59.09375 C 234.769531 58.351562 234.773438 57.613281 234.820312 56.875 C 234.863281 56.136719 234.953125 55.402344 235.085938 54.671875 C 235.21875 53.941406 235.390625 53.226562 235.609375 52.515625 C 235.828125 51.808594 236.085938 51.117188 236.382812 50.4375 C 236.683594 49.761719 237.019531 49.101562 237.394531 48.464844 C 237.773438 47.828125 238.1875 47.214844 238.632812 46.625 C 239.082031 46.035156 239.566406 45.472656 240.082031 44.941406 C 240.59375 44.410156 241.140625 43.910156 241.714844 43.441406 C 242.289062 42.972656 242.886719 42.542969 243.511719 42.144531 C 244.136719 41.746094 244.785156 41.386719 245.453125 41.066406 C 246.121094 40.746094 246.804688 40.464844 247.503906 40.226562 C 248.203125 39.984375 248.917969 39.785156 249.640625 39.628906 C 250.367188 39.472656 251.097656 39.363281 251.832031 39.292969 C 252.570312 39.222656 253.308594 39.195312 254.050781 39.210938 C 254.789062 39.230469 255.527344 39.292969 256.261719 39.394531 C 256.992188 39.5 257.71875 39.648438 258.433594 39.835938 C 259.152344 40.027344 259.851562 40.257812 260.542969 40.53125 C 261.230469 40.804688 261.898438 41.113281 262.550781 41.46875 C 263.203125 41.820312 263.832031 42.207031 264.4375 42.632812 C 265.042969 43.058594 265.625 43.519531 266.175781 44.015625 C 266.726562 44.507812 267.246094 45.035156 267.738281 45.589844 C 268.226562 46.144531 268.679688 46.726562 269.101562 47.335938 C 269.523438 47.945312 269.90625 48.578125 270.253906 49.234375 C 270.597656 49.886719 270.90625 50.5625 271.171875 51.253906 C 271.4375 51.941406 271.664062 52.648438 271.847656 53.363281 C 272.03125 54.082031 272.171875 54.808594 272.269531 55.542969 C 272.367188 56.277344 272.421875 57.015625 272.433594 57.753906 C 272.445312 58.496094 272.414062 59.234375 272.335938 59.96875 C 272.261719 60.707031 272.140625 61.4375 271.980469 62.160156 C 271.816406 62.882812 271.613281 63.59375 271.367188 64.292969 C 271.121094 64.988281 270.835938 65.671875 270.507812 66.335938 C 270.179688 67 269.816406 67.644531 269.414062 68.265625 C 269.011719 68.886719 268.574219 69.484375 268.101562 70.054688 C 267.628906 70.625 267.125 71.164062 266.585938 71.675781 C 266.050781 72.183594 265.484375 72.664062 264.890625 73.105469 C 264.300781 73.550781 263.683594 73.957031 263.042969 74.328125 C 262.398438 74.699219 261.738281 75.03125 261.058594 75.324219 C 260.378906 75.617188 259.683594 75.871094 258.972656 76.082031 C 258.265625 76.292969 257.542969 76.460938 256.8125 76.585938 C 256.085938 76.714844 255.351562 76.796875 254.609375 76.835938 L 245.082031 116.636719 L 279.078125 116.636719 C 280.535156 116.640625 281.988281 116.714844 283.433594 116.863281 C 284.882812 117.007812 286.320312 117.226562 287.746094 117.511719 C 289.171875 117.800781 290.582031 118.15625 291.972656 118.582031 C 293.367188 119.007812 294.734375 119.5 296.078125 120.058594 C 297.421875 120.617188 298.734375 121.242188 300.015625 121.929688 C 301.296875 122.617188 302.542969 123.363281 303.753906 124.175781 C 304.960938 124.984375 306.128906 125.851562 307.253906 126.777344 C 308.375 127.699219 309.453125 128.675781 310.480469 129.707031 C 311.511719 130.738281 312.484375 131.8125 313.410156 132.9375 C 314.332031 134.0625 315.195312 135.230469 316.003906 136.441406 C 316.8125 137.652344 317.5625 138.898438 318.246094 140.183594 C 318.933594 141.464844 319.554688 142.777344 320.113281 144.125 C 320.671875 145.46875 321.160156 146.835938 321.585938 148.226562 C 322.007812 149.621094 322.363281 151.03125 322.648438 152.457031 C 322.933594 153.882812 323.148438 155.320312 323.292969 156.769531 C 323.4375 158.21875 323.511719 159.667969 323.511719 161.125 Z M 323.511719 161.148438 " fill-opacity="1" fill-rule="evenodd"/></g></svg>