<svg xmlns="http://www.w3.org/2000/svg" xmlns:xlink="http://www.w3.org/1999/xlink" width="500" zoomAndPan="magnify" viewBox="0 0 375 374.999991" height="500" preserveAspectRatio="xMidYMid meet" version="1.0"><defs><clipPath id="b9ace01546"><path d="M 24.257812 138 L 140 138 L 140 249 L 24.257812 249 Z M 24.257812 138 " clip-rule="nonzero"/></clipPath><clipPath id="d39a455030"><path d="M 143 92.570312 L 231 92.570312 L 231 292.820312 L 143 292.820312 Z M 143 92.570312 " clip-rule="nonzero"/></clipPath><clipPath id="4edb5fe8b5"><path d="M 235 138 L 350.507812 138 L 350.507812 249 L 235 249 Z M 235 138 " clip-rule="nonzero"/></clipPath></defs><g clip-path="url(#b9ace01546)"><path fill="#5271ff" d="M 33.796875 208.269531 L 116.261719 246.617188 C 118.402344 247.597656 120.652344 248.105469 123.011719 248.105469 C 126.058594 248.105469 129.03125 247.234375 131.644531 245.601562 C 136.289062 242.625 139.046875 237.582031 139.046875 232.105469 L 139.046875 231.671875 C 139.046875 225.464844 135.417969 219.769531 129.757812 217.121094 L 78.167969 193.140625 L 129.757812 169.15625 C 135.382812 166.546875 139.046875 160.851562 139.046875 154.609375 L 139.046875 154.246094 C 139.046875 148.730469 136.289062 143.6875 131.644531 140.75 C 129.070312 139.117188 126.09375 138.246094 123.011719 138.246094 C 120.6875 138.246094 118.367188 138.753906 116.261719 139.734375 L 33.796875 178.046875 C 28.136719 180.660156 24.507812 186.390625 24.507812 192.59375 L 24.507812 193.757812 C 24.507812 199.925781 28.136719 205.621094 33.796875 208.269531 Z M 33.796875 208.269531 " fill-opacity="1" fill-rule="nonzero"/></g><g clip-path="url(#d39a455030)"><path fill="#5271ff" d="M 146.664062 286.382812 C 149.675781 290.480469 154.503906 292.949219 159.617188 292.949219 L 160.015625 292.949219 C 167.019531 292.949219 173.152344 288.484375 175.292969 281.808594 L 229.601562 113.46875 C 231.164062 108.605469 230.292969 103.234375 227.28125 99.136719 C 224.269531 95.035156 219.445312 92.570312 214.328125 92.570312 L 213.929688 92.570312 C 206.929688 92.570312 200.796875 97.03125 198.65625 103.707031 L 144.308594 272.050781 C 142.785156 276.914062 143.652344 282.28125 146.664062 286.382812 Z M 146.664062 286.382812 " fill-opacity="1" fill-rule="nonzero"/></g><g clip-path="url(#4edb5fe8b5)"><path fill="#5271ff" d="M 235.988281 154.644531 C 235.988281 160.851562 239.617188 166.546875 245.277344 169.195312 L 296.867188 193.175781 L 245.277344 217.121094 C 239.652344 219.734375 235.988281 225.429688 235.988281 231.671875 L 235.988281 232.105469 C 235.988281 237.621094 238.746094 242.664062 243.390625 245.601562 C 245.964844 247.234375 248.941406 248.105469 252.023438 248.105469 C 254.382812 248.105469 256.632812 247.597656 258.773438 246.617188 L 341.238281 208.269531 C 346.863281 205.65625 350.492188 199.925781 350.492188 193.71875 L 350.492188 192.558594 C 350.492188 186.355469 346.863281 180.660156 341.203125 178.011719 L 258.773438 139.699219 C 256.707031 138.71875 254.347656 138.210938 252.023438 138.210938 C 248.941406 138.210938 245.964844 139.082031 243.390625 140.714844 C 238.746094 143.6875 235.988281 148.730469 235.988281 154.246094 Z M 235.988281 154.644531 " fill-opacity="1" fill-rule="nonzero"/></g></svg>