<svg xmlns="http://www.w3.org/2000/svg" xmlns:xlink="http://www.w3.org/1999/xlink" width="500" zoomAndPan="magnify" viewBox="0 0 375 374.999991" height="500" preserveAspectRatio="xMidYMid meet" version="1.0"><defs><clipPath id="8c035ededd"><path d="M 37.5 47.347656 L 347.25 47.347656 L 347.25 357.097656 L 37.5 357.097656 Z M 37.5 47.347656 " clip-rule="nonzero"/></clipPath></defs><g clip-path="url(#8c035ededd)"><path fill="#5271ff" d="M 81.761719 47.347656 C 57.433594 47.347656 37.5 67.28125 37.5 91.609375 L 37.5 312.925781 C 37.5 337.257812 57.433594 357.191406 81.761719 357.191406 L 303.082031 357.191406 C 327.410156 357.191406 347.34375 337.257812 347.34375 312.925781 L 347.34375 91.609375 C 347.34375 67.28125 327.410156 47.347656 303.082031 47.347656 Z M 81.761719 69.476562 L 303.082031 69.476562 C 315.53125 69.476562 325.210938 79.15625 325.210938 91.609375 L 325.210938 248.066406 L 264.867188 199.003906 C 258.78125 194.054688 251.460938 191.464844 241.980469 191.527344 C 232.5 191.589844 224.203125 194.945312 217.773438 201.101562 L 174.332031 242.707031 L 146.863281 221.351562 C 139.671875 215.761719 130.9375 213.1875 122.332031 213.570312 C 113.722656 213.957031 105.238281 217.300781 98.578125 223.515625 L 59.632812 259.84375 L 59.632812 91.609375 C 59.632812 79.15625 69.3125 69.476562 81.761719 69.476562 Z M 241.914062 213.054688 C 245.019531 212.894531 248.15625 213.929688 250.90625 216.164062 L 325.210938 276.597656 L 325.210938 312.925781 C 325.210938 325.378906 315.53125 335.058594 303.082031 335.058594 L 109.882812 335.058594 L 233.097656 217.09375 C 235.738281 214.566406 238.8125 213.210938 241.914062 213.054688 Z M 123.304688 235.617188 C 126.777344 235.460938 130.304688 236.511719 133.265625 238.816406 L 158.164062 258.179688 L 78.195312 334.757812 C 67.519531 333.101562 59.632812 324.15625 59.632812 312.925781 L 59.632812 290.125 L 113.664062 239.703125 C 116.40625 237.140625 119.828125 235.773438 123.304688 235.617188 Z M 123.304688 235.617188 " fill-opacity="1" fill-rule="nonzero"/></g><path fill="#5271ff" d="M 137.09375 91.609375 C 112.777344 91.609375 92.828125 111.558594 92.828125 135.875 C 92.828125 160.1875 112.777344 180.136719 137.09375 180.136719 C 161.40625 180.136719 181.355469 160.1875 181.355469 135.875 C 181.355469 111.558594 161.40625 91.609375 137.09375 91.609375 Z M 137.09375 113.742188 C 149.445312 113.742188 159.222656 123.519531 159.222656 135.875 C 159.222656 148.226562 149.445312 158.003906 137.09375 158.003906 C 124.738281 158.003906 114.960938 148.226562 114.960938 135.875 C 114.960938 123.519531 124.738281 113.742188 137.09375 113.742188 Z M 137.09375 113.742188 " fill-opacity="1" fill-rule="nonzero"/></svg>