<svg xmlns="http://www.w3.org/2000/svg" xmlns:xlink="http://www.w3.org/1999/xlink" width="500" zoomAndPan="magnify" viewBox="0 0 375 374.999991" height="500" preserveAspectRatio="xMidYMid meet" version="1.0"><defs><clipPath id="1a879fa13e"><path d="M 49.539062 42 L 345 42 L 345 337.210938 L 49.539062 337.210938 Z M 49.539062 42 " clip-rule="nonzero"/></clipPath><clipPath id="3add548ff9"><path d="M 65 170 L 333 170 L 333 337.210938 L 65 337.210938 Z M 65 170 " clip-rule="nonzero"/></clipPath></defs><g clip-path="url(#1a879fa13e)"><path fill="#f3a61e" d="M 344.996094 189.800781 C 344.996094 210.539062 340.707031 230.289062 332.933594 248.179688 C 310.285156 300.539062 258.078125 337.183594 197.296875 337.183594 C 136.511719 337.183594 89.40625 304.035156 65.179688 255.726562 C 55.210938 235.894531 49.59375 213.496094 49.59375 189.800781 C 49.59375 108.402344 115.726562 42.433594 197.296875 42.433594 C 278.867188 42.433594 344.996094 108.402344 344.996094 189.800781 Z M 344.996094 189.800781 " fill-opacity="1" fill-rule="nonzero"/></g><g clip-path="url(#3add548ff9)"><path fill="#3d3b3c" d="M 332.933594 248.179688 C 310.285156 300.539062 258.078125 337.183594 197.296875 337.183594 C 136.511719 337.183594 89.40625 304.035156 65.179688 255.726562 C 69.449219 253.347656 74.253906 251.425781 79.625 249.976562 C 97.882812 245.097656 124.90625 238.769531 124.90625 238.769531 L 133.214844 218.296875 L 131.890625 171.167969 C 131.890625 171.167969 150.3125 169.761719 160.40625 171.167969 C 170.5 172.550781 208.527344 187.875 208.527344 187.875 L 229.875 174.722656 C 229.875 174.722656 246.390625 172.800781 254.597656 173.234375 C 262.804688 173.6875 273.582031 221.171875 273.582031 221.171875 L 281.457031 234.796875 C 281.457031 234.796875 295.257812 241.558594 313.890625 245.367188 C 321.308594 246.875 327.484375 247.183594 332.933594 248.179688 Z M 332.933594 248.179688 " fill-opacity="1" fill-rule="nonzero"/></g><path fill="#56352c" d="M 153.019531 138.914062 C 153.019531 138.914062 141.914062 131.246094 139.648438 128.359375 C 137.382812 125.472656 132.496094 118.921875 129.449219 111.132812 C 126.40625 103.34375 117.464844 92.273438 120.746094 85.269531 C 124.027344 78.265625 141.234375 63.921875 141.234375 63.921875 C 141.234375 63.921875 144.34375 44.773438 158.339844 38.886719 C 172.335938 32.992188 216.941406 30.46875 240.332031 42.421875 C 252.351562 48.5625 267.507812 50.652344 271.183594 55.027344 C 271.183594 55.027344 264.785156 56.257812 261.921875 61.082031 C 260.910156 62.785156 268.925781 67.671875 270.066406 68.773438 C 276.628906 75.101562 279.902344 74.226562 279.902344 74.226562 C 279.902344 74.226562 272.035156 77.5 263.289062 76.191406 C 263.289062 76.191406 268.753906 80.554688 275.09375 92.335938 C 281.433594 104.117188 276.183594 108.988281 276.183594 108.988281 C 276.183594 108.988281 276.992188 102.59375 264.78125 100.195312 C 264.78125 100.195312 265.859375 106.542969 263.28125 113.414062 C 260.703125 120.289062 251.253906 130.957031 251.253906 130.957031 L 197.289062 165.425781 L 153.015625 138.90625 Z M 153.019531 138.914062 " fill-opacity="1" fill-rule="nonzero"/><path fill="#da8059" d="M 148.386719 133.5 C 148.386719 133.5 143.867188 121.914062 136.835938 123.023438 C 129.804688 124.132812 127.566406 137.015625 131.101562 148.902344 C 134.632812 160.785156 142.398438 172.53125 150.707031 166.238281 C 157.027344 161.445312 148.386719 133.5 148.386719 133.5 Z M 148.386719 133.5 " fill-opacity="1" fill-rule="nonzero"/><path fill="#da8059" d="M 246.417969 128.84375 C 246.417969 128.84375 249.464844 117.535156 256.160156 117.855469 C 262.851562 118.171875 266.273438 130.015625 264.179688 141.496094 C 262.09375 152.988281 256.019531 164.777344 247.601562 159.730469 C 241.1875 155.890625 246.417969 128.84375 246.417969 128.84375 Z M 246.417969 128.84375 " fill-opacity="1" fill-rule="nonzero"/><path fill="#fbc092" d="M 254.597656 235.027344 L 245.871094 260.421875 L 177.648438 275.082031 L 141.234375 239.84375 C 141.234375 239.84375 157.671875 232.171875 161.195312 223.632812 C 162.4375 220.570312 162.4375 214.449219 161.917969 207.832031 C 160.964844 195.921875 158.332031 182.417969 158.332031 182.417969 L 237.976562 178.320312 C 237.976562 178.320312 237.273438 190.832031 237.066406 202.992188 C 236.898438 212.238281 237.023438 221.292969 237.976562 224.519531 C 240.171875 231.964844 254.597656 235.027344 254.597656 235.027344 Z M 254.597656 235.027344 " fill-opacity="1" fill-rule="nonzero"/><path fill="#da8059" d="M 237.976562 178.320312 C 237.976562 178.320312 237.273438 190.832031 237.066406 202.992188 C 224.941406 214.46875 204.277344 233.101562 188.257812 230.746094 C 177.089844 229.109375 166.320312 220.570312 161.917969 207.832031 C 160.964844 195.921875 158.332031 182.417969 158.332031 182.417969 Z M 237.976562 178.320312 " fill-opacity="1" fill-rule="nonzero"/><path fill="#fbc092" d="M 144.359375 125.726562 C 144.359375 125.726562 149.144531 160.359375 148.800781 167.691406 C 148.460938 175.027344 149.3125 180.3125 153.925781 184.070312 C 158.539062 187.820312 181.964844 209.148438 190.851562 210.511719 C 199.734375 211.878906 207.773438 211.367188 213.757812 207.785156 C 219.738281 204.199219 237.859375 189.359375 242.136719 185.78125 C 246.410156 182.203125 247.78125 178.460938 247.78125 168.472656 C 247.78125 158.484375 246.921875 133.578125 247.78125 119.253906 C 248.199219 112.222656 244.707031 69.613281 244.707031 69.613281 L 185.039062 53.410156 L 151.363281 68.761719 L 136.828125 82.582031 L 144.351562 125.738281 Z M 144.359375 125.726562 " fill-opacity="1" fill-rule="nonzero"/><path stroke-linecap="round" transform="matrix(0.690807, 0, 0, 0.689326, 49.593748, 21.50006)" fill="none" stroke-linejoin="round" d="M 206.61971 148.361591 C 206.61971 148.361591 210.787163 184.311573 209.661894 190.142678 " stroke="#da8059" stroke-width="6" stroke-opacity="1" stroke-miterlimit="4"/><path stroke-linecap="round" transform="matrix(0.690807, 0, 0, 0.689326, 49.593748, 21.50006)" fill="none" stroke-linejoin="round" d="M 145.911742 144.009512 C 145.911742 144.009512 167.240957 127.870554 178.001693 127.099874 C 188.76243 126.329193 192.030798 128.448565 192.030798 128.448565 " stroke="#7d2929" stroke-width="6" stroke-opacity="1" stroke-miterlimit="4"/><path stroke-linecap="round" transform="matrix(0.690807, 0, 0, 0.689326, 49.593748, 21.50006)" fill="none" stroke-linejoin="round" d="M 230.080716 128.437231 C 230.080716 128.437231 234.118113 127.139541 242.571765 126.929871 C 251.019763 126.7202 269.278522 139.770769 269.278522 139.770769 " stroke="#7d2929" stroke-width="6" stroke-opacity="1" stroke-miterlimit="4"/><path fill="#3d1119" d="M 177.863281 130.53125 C 177.90625 131 177.921875 131.46875 177.910156 131.9375 C 177.894531 132.40625 177.851562 132.863281 177.777344 133.308594 C 177.707031 133.753906 177.605469 134.179688 177.480469 134.585938 C 177.351562 134.992188 177.199219 135.375 177.019531 135.726562 C 176.839844 136.078125 176.640625 136.398438 176.417969 136.683594 C 176.199219 136.96875 175.957031 137.210938 175.703125 137.417969 C 175.445312 137.625 175.175781 137.789062 174.890625 137.90625 C 174.609375 138.027344 174.320312 138.101562 174.023438 138.128906 C 173.726562 138.15625 173.429688 138.136719 173.128906 138.074219 C 172.828125 138.007812 172.535156 137.898438 172.242188 137.746094 C 171.953125 137.589844 171.671875 137.394531 171.398438 137.15625 C 171.128906 136.917969 170.871094 136.640625 170.628906 136.328125 C 170.386719 136.015625 170.167969 135.671875 169.964844 135.296875 C 169.761719 134.917969 169.585938 134.519531 169.429688 134.09375 C 169.273438 133.671875 169.148438 133.230469 169.046875 132.773438 C 168.945312 132.316406 168.871094 131.855469 168.824219 131.382812 C 168.78125 130.910156 168.765625 130.441406 168.78125 129.976562 C 168.792969 129.507812 168.835938 129.050781 168.910156 128.605469 C 168.980469 128.160156 169.082031 127.734375 169.210938 127.328125 C 169.335938 126.917969 169.492188 126.539062 169.667969 126.1875 C 169.847656 125.835938 170.046875 125.515625 170.269531 125.230469 C 170.492188 124.945312 170.730469 124.699219 170.988281 124.492188 C 171.246094 124.289062 171.515625 124.125 171.796875 124.007812 C 172.078125 123.886719 172.367188 123.8125 172.664062 123.785156 C 172.960938 123.757812 173.261719 123.773438 173.558594 123.839844 C 173.859375 123.902344 174.15625 124.011719 174.445312 124.167969 C 174.738281 124.320312 175.019531 124.519531 175.289062 124.757812 C 175.5625 124.996094 175.816406 125.269531 176.058594 125.585938 C 176.300781 125.898438 176.523438 126.242188 176.722656 126.617188 C 176.925781 126.992188 177.105469 127.394531 177.257812 127.816406 C 177.414062 128.242188 177.542969 128.683594 177.644531 129.140625 C 177.746094 129.597656 177.820312 130.058594 177.863281 130.53125 Z M 177.863281 130.53125 " fill-opacity="1" fill-rule="nonzero"/><path fill="#3d1119" d="M 219.542969 121.265625 C 219.835938 121.320312 220.117188 121.421875 220.386719 121.566406 C 220.660156 121.710938 220.914062 121.894531 221.148438 122.125 C 221.386719 122.351562 221.601562 122.617188 221.796875 122.921875 C 221.992188 123.226562 222.164062 123.5625 222.308594 123.929688 C 222.457031 124.296875 222.574219 124.6875 222.664062 125.105469 C 222.753906 125.523438 222.816406 125.957031 222.847656 126.40625 C 222.878906 126.855469 222.878906 127.316406 222.851562 127.78125 C 222.824219 128.25 222.765625 128.714844 222.679688 129.179688 C 222.59375 129.644531 222.476562 130.097656 222.335938 130.542969 C 222.191406 130.988281 222.023438 131.417969 221.832031 131.824219 C 221.640625 132.234375 221.425781 132.617188 221.191406 132.972656 C 220.957031 133.328125 220.703125 133.652344 220.433594 133.941406 C 220.167969 134.234375 219.886719 134.484375 219.59375 134.699219 C 219.300781 134.910156 219.003906 135.082031 218.699219 135.207031 C 218.398438 135.335938 218.09375 135.417969 217.789062 135.453125 C 217.484375 135.492188 217.183594 135.484375 216.890625 135.429688 C 216.597656 135.375 216.316406 135.273438 216.046875 135.128906 C 215.777344 134.984375 215.523438 134.800781 215.285156 134.570312 C 215.046875 134.34375 214.832031 134.078125 214.636719 133.773438 C 214.441406 133.46875 214.269531 133.132812 214.125 132.765625 C 213.980469 132.398438 213.863281 132.007812 213.773438 131.589844 C 213.679688 131.171875 213.621094 130.738281 213.589844 130.289062 C 213.558594 129.839844 213.554688 129.378906 213.582031 128.914062 C 213.613281 128.445312 213.667969 127.980469 213.757812 127.515625 C 213.84375 127.050781 213.957031 126.597656 214.101562 126.152344 C 214.242188 125.707031 214.410156 125.277344 214.601562 124.871094 C 214.796875 124.460938 215.007812 124.078125 215.246094 123.722656 C 215.480469 123.367188 215.730469 123.042969 216 122.753906 C 216.269531 122.460938 216.550781 122.210938 216.839844 122 C 217.132812 121.785156 217.429688 121.613281 217.734375 121.488281 C 218.039062 121.359375 218.34375 121.277344 218.648438 121.242188 C 218.953125 121.203125 219.25 121.210938 219.542969 121.265625 Z M 219.542969 121.265625 " fill-opacity="1" fill-rule="nonzero"/><path stroke-linecap="round" transform="matrix(0.690807, 0, 0, 0.689326, 49.593748, 21.50006)" fill="none" stroke-linejoin="round" d="M 174.280955 217.110832 C 174.280955 217.110832 186.562783 230.467406 203.147775 230.467406 C 229.650965 230.467406 244.12113 217.110832 244.12113 217.110832 " stroke="#7d2929" stroke-width="3" stroke-opacity="1" stroke-miterlimit="4"/><path fill="#3d3b3c" d="M 200.921875 267.492188 C 200.921875 267.492188 181.71875 262.480469 168.09375 250.308594 C 154.472656 238.132812 141.257812 224.140625 135.566406 207.101562 C 129.871094 190.0625 133.429688 185.351562 140.25 183.320312 L 131.875 171.160156 C 131.875 171.160156 113.210938 171.261719 110.578125 179.375 C 107.945312 187.496094 122.902344 212.085938 122.542969 215.785156 C 122.183594 219.488281 116.898438 217.695312 110.265625 221.398438 C 103.640625 225.097656 104 237.871094 111.054688 247.417969 C 118.113281 256.96875 126.121094 276.136719 139.570312 280.375 C 153.019531 284.617188 194.105469 275.089844 194.105469 275.089844 C 194.105469 275.089844 224.402344 286.027344 244.402344 279.671875 C 264.398438 273.316406 283.984375 247.648438 289.179688 242.9375 C 294.367188 238.230469 299.09375 236.109375 294.367188 229.519531 C 289.648438 222.929688 281.621094 217.042969 281.621094 217.042969 C 281.621094 217.042969 289.171875 187.261719 284.21875 180.367188 C 279.265625 173.476562 254.589844 173.242188 254.589844 173.242188 C 254.589844 173.242188 258.5 184.9375 257.796875 189.804688 C 257.089844 194.671875 261.207031 193.527344 262.042969 199.847656 C 263.058594 207.535156 210.875 264.734375 200.921875 267.492188 Z M 200.921875 267.492188 " fill-opacity="1" fill-rule="nonzero"/><path fill="#56352c" d="M 145.0625 130.964844 C 145.0625 130.964844 146.769531 124.4375 147.335938 117.847656 C 147.902344 111.257812 144.074219 93.859375 147.335938 89.894531 C 149.125 87.722656 157.414062 81.277344 166.320312 78.09375 C 173.640625 75.472656 181.648438 75.964844 184.480469 75.039062 C 188.480469 73.738281 204.375 70.523438 215.855469 74.207031 C 227.339844 77.886719 235.234375 84.097656 236.65625 93.996094 C 238.074219 103.902344 244.765625 121.226562 247.828125 120.769531 C 250.886719 120.316406 251.207031 63.886719 251.207031 63.886719 L 213.765625 49.128906 L 164.765625 50.742188 L 129.449219 82.332031 Z M 145.0625 130.964844 " fill-opacity="1" fill-rule="nonzero"/></svg>