<svg xmlns="http://www.w3.org/2000/svg" xmlns:xlink="http://www.w3.org/1999/xlink" width="500" zoomAndPan="magnify" viewBox="0 0 375 374.999991" height="500" preserveAspectRatio="xMidYMid meet" version="1.0"><defs><clipPath id="08048371c3"><path d="M 37.5 95.023438 L 345 95.023438 L 345 117 L 37.5 117 Z M 37.5 95.023438 " clip-rule="nonzero"/></clipPath><clipPath id="0de41b82ec"><path d="M 154 226 L 345 226 L 345 248.773438 L 154 248.773438 Z M 154 226 " clip-rule="nonzero"/></clipPath></defs><g clip-path="url(#08048371c3)"><path fill="#ffffff" d="M 344.71875 105.992188 C 344.71875 105.273438 344.648438 104.558594 344.507812 103.851562 C 344.367188 103.148438 344.160156 102.460938 343.882812 101.796875 C 343.609375 101.128906 343.269531 100.496094 342.871094 99.898438 C 342.46875 99.300781 342.015625 98.746094 341.503906 98.234375 C 340.996094 97.726562 340.441406 97.269531 339.84375 96.871094 C 339.242188 96.472656 338.609375 96.132812 337.945312 95.855469 C 337.28125 95.582031 336.59375 95.375 335.886719 95.234375 C 335.179688 95.09375 334.46875 95.023438 333.746094 95.023438 L 48.472656 95.023438 C 47.75 95.023438 47.039062 95.09375 46.332031 95.234375 C 45.625 95.375 44.9375 95.582031 44.273438 95.855469 C 43.609375 96.132812 42.976562 96.472656 42.375 96.871094 C 41.777344 97.269531 41.222656 97.726562 40.714844 98.234375 C 40.203125 98.746094 39.75 99.300781 39.347656 99.898438 C 38.949219 100.496094 38.609375 101.128906 38.335938 101.796875 C 38.058594 102.460938 37.851562 103.148438 37.710938 103.851562 C 37.570312 104.558594 37.5 105.273438 37.5 105.992188 C 37.5 106.714844 37.570312 107.429688 37.710938 108.132812 C 37.851562 108.839844 38.058594 109.527344 38.335938 110.191406 C 38.609375 110.859375 38.949219 111.492188 39.347656 112.089844 C 39.75 112.6875 40.203125 113.242188 40.714844 113.753906 C 41.222656 114.261719 41.777344 114.714844 42.375 115.117188 C 42.976562 115.515625 43.609375 115.855469 44.273438 116.128906 C 44.9375 116.40625 45.625 116.613281 46.332031 116.753906 C 47.039062 116.894531 47.75 116.964844 48.472656 116.964844 L 333.746094 116.964844 C 334.46875 116.964844 335.179688 116.894531 335.886719 116.753906 C 336.59375 116.613281 337.28125 116.40625 337.945312 116.128906 C 338.609375 115.855469 339.242188 115.515625 339.84375 115.117188 C 340.441406 114.714844 340.996094 114.261719 341.503906 113.753906 C 342.015625 113.242188 342.46875 112.6875 342.871094 112.089844 C 343.269531 111.492188 343.609375 110.859375 343.882812 110.191406 C 344.160156 109.527344 344.367188 108.839844 344.507812 108.132812 C 344.648438 107.429688 344.71875 106.714844 344.71875 105.992188 Z M 344.71875 105.992188 " fill-opacity="1" fill-rule="nonzero"/></g><path fill="#ffffff" d="M 333.746094 160.855469 L 104.320312 160.855469 C 103.601562 160.855469 102.886719 160.925781 102.179688 161.066406 C 101.472656 161.207031 100.785156 161.414062 100.121094 161.691406 C 99.457031 161.964844 98.824219 162.304688 98.222656 162.703125 C 97.625 163.105469 97.070312 163.558594 96.5625 164.066406 C 96.050781 164.578125 95.597656 165.132812 95.195312 165.730469 C 94.796875 166.328125 94.457031 166.960938 94.183594 167.628906 C 93.90625 168.292969 93.699219 168.980469 93.558594 169.6875 C 93.417969 170.394531 93.347656 171.105469 93.347656 171.828125 C 93.347656 172.546875 93.417969 173.261719 93.558594 173.96875 C 93.699219 174.671875 93.90625 175.359375 94.183594 176.023438 C 94.457031 176.691406 94.796875 177.324219 95.195312 177.921875 C 95.597656 178.519531 96.050781 179.074219 96.5625 179.585938 C 97.070312 180.09375 97.625 180.550781 98.222656 180.949219 C 98.824219 181.351562 99.457031 181.6875 100.121094 181.964844 C 100.785156 182.238281 101.472656 182.445312 102.179688 182.585938 C 102.886719 182.726562 103.601562 182.796875 104.320312 182.796875 L 333.746094 182.796875 C 334.46875 182.796875 335.179688 182.726562 335.886719 182.585938 C 336.59375 182.445312 337.28125 182.238281 337.945312 181.964844 C 338.609375 181.6875 339.242188 181.351562 339.84375 180.949219 C 340.441406 180.550781 340.996094 180.09375 341.503906 179.585938 C 342.015625 179.074219 342.46875 178.519531 342.871094 177.921875 C 343.269531 177.324219 343.609375 176.691406 343.882812 176.023438 C 344.160156 175.359375 344.367188 174.671875 344.507812 173.96875 C 344.648438 173.261719 344.71875 172.546875 344.71875 171.828125 C 344.71875 171.105469 344.648438 170.394531 344.507812 169.6875 C 344.367188 168.980469 344.160156 168.292969 343.882812 167.628906 C 343.609375 166.960938 343.269531 166.328125 342.871094 165.730469 C 342.46875 165.132812 342.015625 164.578125 341.503906 164.066406 C 340.996094 163.558594 340.441406 163.105469 339.84375 162.703125 C 339.242188 162.304688 338.609375 161.964844 337.945312 161.691406 C 337.28125 161.414062 336.59375 161.207031 335.886719 161.066406 C 335.179688 160.925781 334.46875 160.855469 333.746094 160.855469 Z M 333.746094 160.855469 " fill-opacity="1" fill-rule="nonzero"/><g clip-path="url(#0de41b82ec)"><path fill="#ffffff" d="M 333.746094 226.6875 L 165.214844 226.6875 C 164.496094 226.6875 163.78125 226.757812 163.074219 226.898438 C 162.367188 227.039062 161.683594 227.246094 161.015625 227.523438 C 160.351562 227.796875 159.71875 228.136719 159.121094 228.535156 C 158.519531 228.9375 157.964844 229.390625 157.457031 229.902344 C 156.949219 230.410156 156.492188 230.964844 156.09375 231.5625 C 155.691406 232.164062 155.355469 232.792969 155.078125 233.460938 C 154.800781 234.125 154.59375 234.8125 154.453125 235.519531 C 154.3125 236.226562 154.242188 236.9375 154.242188 237.660156 C 154.242188 238.378906 154.3125 239.09375 154.453125 239.800781 C 154.59375 240.507812 154.800781 241.191406 155.078125 241.859375 C 155.355469 242.523438 155.691406 243.15625 156.09375 243.753906 C 156.492188 244.355469 156.949219 244.90625 157.457031 245.417969 C 157.964844 245.925781 158.519531 246.382812 159.121094 246.78125 C 159.71875 247.183594 160.351562 247.519531 161.015625 247.796875 C 161.683594 248.070312 162.367188 248.28125 163.074219 248.421875 C 163.78125 248.5625 164.496094 248.632812 165.214844 248.632812 L 333.746094 248.632812 C 334.46875 248.632812 335.179688 248.5625 335.886719 248.421875 C 336.59375 248.28125 337.28125 248.070312 337.945312 247.796875 C 338.609375 247.519531 339.242188 247.183594 339.84375 246.78125 C 340.441406 246.382812 340.996094 245.925781 341.503906 245.417969 C 342.015625 244.90625 342.46875 244.355469 342.871094 243.753906 C 343.269531 243.15625 343.609375 242.523438 343.882812 241.859375 C 344.160156 241.191406 344.367188 240.507812 344.507812 239.800781 C 344.648438 239.09375 344.71875 238.378906 344.71875 237.660156 C 344.71875 236.9375 344.648438 236.226562 344.507812 235.519531 C 344.367188 234.8125 344.160156 234.125 343.882812 233.460938 C 343.609375 232.792969 343.269531 232.164062 342.871094 231.5625 C 342.46875 230.964844 342.015625 230.410156 341.503906 229.902344 C 340.996094 229.390625 340.441406 228.9375 339.84375 228.535156 C 339.242188 228.136719 338.609375 227.796875 337.945312 227.523438 C 337.28125 227.246094 336.59375 227.039062 335.886719 226.898438 C 335.179688 226.757812 334.46875 226.6875 333.746094 226.6875 Z M 333.746094 226.6875 " fill-opacity="1" fill-rule="nonzero"/></g></svg>